<mxfile host="Electron" agent="Mozilla/5.0 (Windows NT 10.0; Win64; x64) AppleWebKit/537.36 (KHTML, like Gecko) draw.io/27.0.5 Chrome/134.0.6998.205 Electron/35.3.0 Safari/537.36" version="27.0.5">
  <diagram name="Page-1" id="2YBvvXClWsGukQMizWep">
    <mxGraphModel dx="1691" dy="1915" grid="1" gridSize="10" guides="1" tooltips="1" connect="1" arrows="1" fold="1" page="1" pageScale="1" pageWidth="850" pageHeight="1100" math="0" shadow="0">
      <root>
        <mxCell id="0" />
        <mxCell id="1" parent="0" />
        <mxCell id="uIqUGRWn8S-qK2wcRPT6-1" value="" style="shape=umlLifeline;perimeter=lifelinePerimeter;whiteSpace=wrap;html=1;container=1;dropTarget=0;collapsible=0;recursiveResize=0;outlineConnect=0;portConstraint=eastwest;newEdgeStyle={&quot;curved&quot;:0,&quot;rounded&quot;:0};participant=umlActor;" parent="1" vertex="1">
          <mxGeometry x="20" y="-590" width="20" height="930" as="geometry" />
        </mxCell>
        <mxCell id="8g-urQ_lIcEYBO_vt3ug-13" value="" style="html=1;points=[[0,0,0,0,5],[0,1,0,0,-5],[1,0,0,0,5],[1,1,0,0,-5]];perimeter=orthogonalPerimeter;outlineConnect=0;targetShapes=umlLifeline;portConstraint=eastwest;newEdgeStyle={&quot;curved&quot;:0,&quot;rounded&quot;:0};" vertex="1" parent="uIqUGRWn8S-qK2wcRPT6-1">
          <mxGeometry x="5" y="70" width="10" height="840" as="geometry" />
        </mxCell>
        <mxCell id="uIqUGRWn8S-qK2wcRPT6-2" value="DonationOptPage&amp;nbsp;" style="shape=umlLifeline;perimeter=lifelinePerimeter;whiteSpace=wrap;html=1;container=1;dropTarget=0;collapsible=0;recursiveResize=0;outlineConnect=0;portConstraint=eastwest;newEdgeStyle={&quot;curved&quot;:0,&quot;rounded&quot;:0};" parent="1" vertex="1">
          <mxGeometry x="70" y="-580" width="100" height="920" as="geometry" />
        </mxCell>
        <mxCell id="8g-urQ_lIcEYBO_vt3ug-1" value="" style="html=1;points=[[0,0,0,0,5],[0,1,0,0,-5],[1,0,0,0,5],[1,1,0,0,-5]];perimeter=orthogonalPerimeter;outlineConnect=0;targetShapes=umlLifeline;portConstraint=eastwest;newEdgeStyle={&quot;curved&quot;:0,&quot;rounded&quot;:0};" vertex="1" parent="uIqUGRWn8S-qK2wcRPT6-2">
          <mxGeometry x="45" y="60" width="10" height="850" as="geometry" />
        </mxCell>
        <mxCell id="uIqUGRWn8S-qK2wcRPT6-3" value="DataBase" style="shape=umlLifeline;perimeter=lifelinePerimeter;whiteSpace=wrap;html=1;container=1;dropTarget=0;collapsible=0;recursiveResize=0;outlineConnect=0;portConstraint=eastwest;newEdgeStyle={&quot;curved&quot;:0,&quot;rounded&quot;:0};" parent="1" vertex="1">
          <mxGeometry x="200" y="-580" width="100" height="920" as="geometry" />
        </mxCell>
        <mxCell id="8g-urQ_lIcEYBO_vt3ug-2" value="" style="html=1;points=[[0,0,0,0,5],[0,1,0,0,-5],[1,0,0,0,5],[1,1,0,0,-5]];perimeter=orthogonalPerimeter;outlineConnect=0;targetShapes=umlLifeline;portConstraint=eastwest;newEdgeStyle={&quot;curved&quot;:0,&quot;rounded&quot;:0};" vertex="1" parent="uIqUGRWn8S-qK2wcRPT6-3">
          <mxGeometry x="45" y="70" width="10" height="840" as="geometry" />
        </mxCell>
        <mxCell id="uIqUGRWn8S-qK2wcRPT6-4" value="PaymentPage" style="shape=umlLifeline;perimeter=lifelinePerimeter;whiteSpace=wrap;html=1;container=1;dropTarget=0;collapsible=0;recursiveResize=0;outlineConnect=0;portConstraint=eastwest;newEdgeStyle={&quot;curved&quot;:0,&quot;rounded&quot;:0};" parent="1" vertex="1">
          <mxGeometry x="340" y="-580" width="100" height="920" as="geometry" />
        </mxCell>
        <mxCell id="8g-urQ_lIcEYBO_vt3ug-3" value="" style="html=1;points=[[0,0,0,0,5],[0,1,0,0,-5],[1,0,0,0,5],[1,1,0,0,-5]];perimeter=orthogonalPerimeter;outlineConnect=0;targetShapes=umlLifeline;portConstraint=eastwest;newEdgeStyle={&quot;curved&quot;:0,&quot;rounded&quot;:0};" vertex="1" parent="uIqUGRWn8S-qK2wcRPT6-4">
          <mxGeometry x="45" y="190" width="10" height="720" as="geometry" />
        </mxCell>
        <mxCell id="uIqUGRWn8S-qK2wcRPT6-5" value="EnterAmountWnd" style="shape=umlLifeline;perimeter=lifelinePerimeter;whiteSpace=wrap;html=1;container=1;dropTarget=0;collapsible=0;recursiveResize=0;outlineConnect=0;portConstraint=eastwest;newEdgeStyle={&quot;curved&quot;:0,&quot;rounded&quot;:0};" parent="1" vertex="1">
          <mxGeometry x="480" y="-580" width="100" height="920" as="geometry" />
        </mxCell>
        <mxCell id="8g-urQ_lIcEYBO_vt3ug-4" value="" style="html=1;points=[[0,0,0,0,5],[0,1,0,0,-5],[1,0,0,0,5],[1,1,0,0,-5]];perimeter=orthogonalPerimeter;outlineConnect=0;targetShapes=umlLifeline;portConstraint=eastwest;newEdgeStyle={&quot;curved&quot;:0,&quot;rounded&quot;:0};" vertex="1" parent="uIqUGRWn8S-qK2wcRPT6-5">
          <mxGeometry x="45" y="240" width="10" height="670" as="geometry" />
        </mxCell>
        <mxCell id="uIqUGRWn8S-qK2wcRPT6-7" value="" style="html=1;verticalAlign=bottom;labelBackgroundColor=none;endArrow=block;endFill=1;rounded=0;" parent="1" edge="1">
          <mxGeometry width="160" relative="1" as="geometry">
            <mxPoint x="29.4473684210526" y="-210" as="sourcePoint" />
            <mxPoint x="530" y="-209.5" as="targetPoint" />
            <Array as="points">
              <mxPoint x="450" y="-210" />
            </Array>
          </mxGeometry>
        </mxCell>
        <mxCell id="uIqUGRWn8S-qK2wcRPT6-10" value="validateAmount()" style="edgeLabel;html=1;align=center;verticalAlign=middle;resizable=0;points=[];" parent="uIqUGRWn8S-qK2wcRPT6-7" vertex="1" connectable="0">
          <mxGeometry x="0.1187" y="3" relative="1" as="geometry">
            <mxPoint x="1" y="-7" as="offset" />
          </mxGeometry>
        </mxCell>
        <mxCell id="uIqUGRWn8S-qK2wcRPT6-8" value="ConfirmationMes" style="shape=umlLifeline;perimeter=lifelinePerimeter;whiteSpace=wrap;html=1;container=1;dropTarget=0;collapsible=0;recursiveResize=0;outlineConnect=0;portConstraint=eastwest;newEdgeStyle={&quot;curved&quot;:0,&quot;rounded&quot;:0};" parent="1" vertex="1">
          <mxGeometry x="720" y="-580" width="100" height="930" as="geometry" />
        </mxCell>
        <mxCell id="8g-urQ_lIcEYBO_vt3ug-6" value="" style="html=1;points=[[0,0,0,0,5],[0,1,0,0,-5],[1,0,0,0,5],[1,1,0,0,-5]];perimeter=orthogonalPerimeter;outlineConnect=0;targetShapes=umlLifeline;portConstraint=eastwest;newEdgeStyle={&quot;curved&quot;:0,&quot;rounded&quot;:0};" vertex="1" parent="uIqUGRWn8S-qK2wcRPT6-8">
          <mxGeometry x="45" y="500" width="10" height="380" as="geometry" />
        </mxCell>
        <mxCell id="uIqUGRWn8S-qK2wcRPT6-9" value="ErrorAmount&amp;nbsp;" style="shape=umlLifeline;perimeter=lifelinePerimeter;whiteSpace=wrap;html=1;container=1;dropTarget=0;collapsible=0;recursiveResize=0;outlineConnect=0;portConstraint=eastwest;newEdgeStyle={&quot;curved&quot;:0,&quot;rounded&quot;:0};" parent="1" vertex="1">
          <mxGeometry x="860" y="-580" width="100" height="940" as="geometry" />
        </mxCell>
        <mxCell id="uIqUGRWn8S-qK2wcRPT6-12" value="" style="html=1;verticalAlign=bottom;labelBackgroundColor=none;endArrow=block;endFill=1;dashed=1;rounded=0;" parent="1" edge="1">
          <mxGeometry width="160" relative="1" as="geometry">
            <mxPoint x="249.5" y="-490" as="sourcePoint" />
            <mxPoint x="119.5" y="-490" as="targetPoint" />
          </mxGeometry>
        </mxCell>
        <mxCell id="uIqUGRWn8S-qK2wcRPT6-13" value="getTitle()" style="text;html=1;align=center;verticalAlign=middle;resizable=0;points=[];autosize=1;strokeColor=none;fillColor=none;" parent="1" vertex="1">
          <mxGeometry x="135" y="-520" width="70" height="30" as="geometry" />
        </mxCell>
        <mxCell id="uIqUGRWn8S-qK2wcRPT6-14" value="" style="html=1;verticalAlign=bottom;labelBackgroundColor=none;endArrow=block;endFill=1;dashed=1;rounded=0;" parent="1" edge="1">
          <mxGeometry width="160" relative="1" as="geometry">
            <mxPoint x="770" y="-15.530000000000001" as="sourcePoint" />
            <mxPoint x="30" y="-15.530000000000001" as="targetPoint" />
          </mxGeometry>
        </mxCell>
        <mxCell id="uIqUGRWn8S-qK2wcRPT6-15" value="show confirmation message" style="text;html=1;align=center;verticalAlign=middle;resizable=0;points=[];autosize=1;strokeColor=none;fillColor=none;" parent="1" vertex="1">
          <mxGeometry x="515" y="-50" width="170" height="30" as="geometry" />
        </mxCell>
        <mxCell id="uIqUGRWn8S-qK2wcRPT6-18" value="" style="html=1;verticalAlign=bottom;labelBackgroundColor=none;endArrow=block;endFill=1;rounded=0;" parent="1" edge="1">
          <mxGeometry width="160" relative="1" as="geometry">
            <mxPoint x="40" y="-310" as="sourcePoint" />
            <mxPoint x="399.5" y="-310" as="targetPoint" />
          </mxGeometry>
        </mxCell>
        <mxCell id="uIqUGRWn8S-qK2wcRPT6-23" value="" style="html=1;verticalAlign=bottom;labelBackgroundColor=none;endArrow=block;endFill=1;rounded=0;" parent="1" edge="1">
          <mxGeometry width="160" relative="1" as="geometry">
            <mxPoint x="40" y="-80" as="sourcePoint" />
            <mxPoint x="659.5" y="-80.00000000000023" as="targetPoint" />
          </mxGeometry>
        </mxCell>
        <mxCell id="uIqUGRWn8S-qK2wcRPT6-24" value="confirmDonation()" style="text;html=1;align=center;verticalAlign=middle;resizable=0;points=[];autosize=1;strokeColor=none;fillColor=none;" parent="1" vertex="1">
          <mxGeometry x="265" y="-120" width="120" height="30" as="geometry" />
        </mxCell>
        <mxCell id="uIqUGRWn8S-qK2wcRPT6-25" value="" style="html=1;verticalAlign=bottom;labelBackgroundColor=none;endArrow=block;endFill=1;dashed=1;rounded=0;" parent="1" edge="1">
          <mxGeometry width="160" relative="1" as="geometry">
            <mxPoint x="250.03" y="-439.9999999999998" as="sourcePoint" />
            <mxPoint x="119.9773684210526" y="-439.9999999999998" as="targetPoint" />
          </mxGeometry>
        </mxCell>
        <mxCell id="uIqUGRWn8S-qK2wcRPT6-26" value="getName()" style="text;html=1;align=center;verticalAlign=middle;resizable=0;points=[];autosize=1;strokeColor=none;fillColor=none;" parent="1" vertex="1">
          <mxGeometry x="150" y="-470" width="80" height="30" as="geometry" />
        </mxCell>
        <mxCell id="uIqUGRWn8S-qK2wcRPT6-28" value="" style="html=1;verticalAlign=bottom;labelBackgroundColor=none;endArrow=block;endFill=1;dashed=1;rounded=0;" parent="1" edge="1">
          <mxGeometry width="160" relative="1" as="geometry">
            <mxPoint x="250.03" y="-380" as="sourcePoint" />
            <mxPoint x="119.9773684210526" y="-380" as="targetPoint" />
            <Array as="points">
              <mxPoint x="180.53" y="-380" />
            </Array>
          </mxGeometry>
        </mxCell>
        <mxCell id="uIqUGRWn8S-qK2wcRPT6-29" value="getCategory()" style="text;html=1;align=center;verticalAlign=middle;resizable=0;points=[];autosize=1;strokeColor=none;fillColor=none;" parent="1" vertex="1">
          <mxGeometry x="140" y="-410" width="100" height="30" as="geometry" />
        </mxCell>
        <mxCell id="uIqUGRWn8S-qK2wcRPT6-30" value="addDonations()" style="text;html=1;align=center;verticalAlign=middle;resizable=0;points=[];autosize=1;strokeColor=none;fillColor=none;" parent="1" vertex="1">
          <mxGeometry x="120" y="-340" width="110" height="30" as="geometry" />
        </mxCell>
        <mxCell id="uIqUGRWn8S-qK2wcRPT6-31" value="" style="html=1;verticalAlign=bottom;labelBackgroundColor=none;endArrow=block;endFill=1;dashed=1;rounded=0;" parent="1" edge="1">
          <mxGeometry width="160" relative="1" as="geometry">
            <mxPoint x="650" y="-140" as="sourcePoint" />
            <mxPoint x="529.9473684210527" y="-140" as="targetPoint" />
            <Array as="points">
              <mxPoint x="600.5" y="-140" />
            </Array>
          </mxGeometry>
        </mxCell>
        <mxCell id="uIqUGRWn8S-qK2wcRPT6-32" value="validateAmount()" style="text;html=1;align=center;verticalAlign=middle;resizable=0;points=[];autosize=1;strokeColor=none;fillColor=none;" parent="1" vertex="1">
          <mxGeometry x="530" y="-170" width="110" height="30" as="geometry" />
        </mxCell>
        <mxCell id="uIqUGRWn8S-qK2wcRPT6-34" value="Alt" style="shape=umlFrame;whiteSpace=wrap;html=1;pointerEvents=0;recursiveResize=0;container=1;collapsible=0;width=150;height=15;" parent="1" vertex="1">
          <mxGeometry x="20" y="-250" width="1040" height="590" as="geometry" />
        </mxCell>
        <mxCell id="uIqUGRWn8S-qK2wcRPT6-36" value="" style="line;strokeWidth=1;dashed=1;labelPosition=center;verticalLabelPosition=bottom;align=left;verticalAlign=top;spacingLeft=20;spacingTop=15;html=1;whiteSpace=wrap;" parent="uIqUGRWn8S-qK2wcRPT6-34" vertex="1">
          <mxGeometry x="10" y="260" width="1030" height="10" as="geometry" />
        </mxCell>
        <mxCell id="uIqUGRWn8S-qK2wcRPT6-6" value="VerifyDonation" style="shape=umlLifeline;perimeter=lifelinePerimeter;whiteSpace=wrap;html=1;container=1;dropTarget=0;collapsible=0;recursiveResize=0;outlineConnect=0;portConstraint=eastwest;newEdgeStyle={&quot;curved&quot;:0,&quot;rounded&quot;:0};" parent="uIqUGRWn8S-qK2wcRPT6-34" vertex="1">
          <mxGeometry x="580" y="-330" width="100" height="920" as="geometry" />
        </mxCell>
        <mxCell id="8g-urQ_lIcEYBO_vt3ug-5" value="" style="html=1;points=[[0,0,0,0,5],[0,1,0,0,-5],[1,0,0,0,5],[1,1,0,0,-5]];perimeter=orthogonalPerimeter;outlineConnect=0;targetShapes=umlLifeline;portConstraint=eastwest;newEdgeStyle={&quot;curved&quot;:0,&quot;rounded&quot;:0};" vertex="1" parent="uIqUGRWn8S-qK2wcRPT6-6">
          <mxGeometry x="45" y="280" width="10" height="620" as="geometry" />
        </mxCell>
        <mxCell id="uIqUGRWn8S-qK2wcRPT6-39" value="" style="html=1;verticalAlign=bottom;labelBackgroundColor=none;endArrow=block;endFill=1;dashed=1;rounded=0;entryX=0.002;entryY=0.611;entryDx=0;entryDy=0;entryPerimeter=0;" parent="uIqUGRWn8S-qK2wcRPT6-34" edge="1" source="8g-urQ_lIcEYBO_vt3ug-8">
          <mxGeometry width="160" relative="1" as="geometry">
            <mxPoint x="887.5" y="370.0000000000001" as="sourcePoint" />
            <mxPoint x="1.1368683772161603e-13" y="370.0000000000001" as="targetPoint" />
          </mxGeometry>
        </mxCell>
        <mxCell id="uIqUGRWn8S-qK2wcRPT6-40" value="failDonation()" style="text;html=1;align=center;verticalAlign=middle;resizable=0;points=[];autosize=1;strokeColor=none;fillColor=none;" parent="uIqUGRWn8S-qK2wcRPT6-34" vertex="1">
          <mxGeometry x="540" y="340" width="90" height="30" as="geometry" />
        </mxCell>
        <mxCell id="U3rOlIXNSBS7j6Llfnni-2" value="" style="html=1;verticalAlign=bottom;labelBackgroundColor=none;endArrow=block;endFill=1;dashed=1;rounded=0;" parent="uIqUGRWn8S-qK2wcRPT6-34" target="uIqUGRWn8S-qK2wcRPT6-1" edge="1">
          <mxGeometry width="160" relative="1" as="geometry">
            <mxPoint x="1010.82" y="460" as="sourcePoint" />
            <mxPoint x="230.00181818181824" y="460" as="targetPoint" />
          </mxGeometry>
        </mxCell>
        <mxCell id="8g-urQ_lIcEYBO_vt3ug-8" value="" style="html=1;points=[[0,0,0,0,5],[0,1,0,0,-5],[1,0,0,0,5],[1,1,0,0,-5]];perimeter=orthogonalPerimeter;outlineConnect=0;targetShapes=umlLifeline;portConstraint=eastwest;newEdgeStyle={&quot;curved&quot;:0,&quot;rounded&quot;:0};" vertex="1" parent="uIqUGRWn8S-qK2wcRPT6-34">
          <mxGeometry x="885" y="330" width="10" height="80" as="geometry" />
        </mxCell>
        <mxCell id="U3rOlIXNSBS7j6Llfnni-1" value="Cancel" style="shape=umlLifeline;perimeter=lifelinePerimeter;whiteSpace=wrap;html=1;container=1;dropTarget=0;collapsible=0;recursiveResize=0;outlineConnect=0;portConstraint=eastwest;newEdgeStyle={&quot;curved&quot;:0,&quot;rounded&quot;:0};" parent="1" vertex="1">
          <mxGeometry x="980" y="-580" width="100" height="920" as="geometry" />
        </mxCell>
        <mxCell id="8g-urQ_lIcEYBO_vt3ug-10" value="" style="html=1;points=[[0,0,0,0,5],[0,1,0,0,-5],[1,0,0,0,5],[1,1,0,0,-5]];perimeter=orthogonalPerimeter;outlineConnect=0;targetShapes=umlLifeline;portConstraint=eastwest;newEdgeStyle={&quot;curved&quot;:0,&quot;rounded&quot;:0};" vertex="1" parent="U3rOlIXNSBS7j6Llfnni-1">
          <mxGeometry x="45" y="670" width="10" height="210" as="geometry" />
        </mxCell>
        <mxCell id="U3rOlIXNSBS7j6Llfnni-3" value="failDonation()" style="text;html=1;align=center;verticalAlign=middle;resizable=0;points=[];autosize=1;strokeColor=none;fillColor=none;" parent="1" vertex="1">
          <mxGeometry x="835" y="158" width="90" height="30" as="geometry" />
        </mxCell>
        <mxCell id="8g-urQ_lIcEYBO_vt3ug-7" value="" style="html=1;points=[[0,0,0,0,5],[0,1,0,0,-5],[1,0,0,0,5],[1,1,0,0,-5]];perimeter=orthogonalPerimeter;outlineConnect=0;targetShapes=umlLifeline;portConstraint=eastwest;newEdgeStyle={&quot;curved&quot;:0,&quot;rounded&quot;:0};" vertex="1" parent="1">
          <mxGeometry x="590" y="-100" height="80" as="geometry" />
        </mxCell>
      </root>
    </mxGraphModel>
  </diagram>
</mxfile>
